# Blender v2.78 (sub 0) OBJ File: ''
# www.blender.org
mtllib x_minus.mtl
o XMinus
v 0.748000 0.174000 0.000000
v 0.991000 0.267000 0.000000
v 0.748000 0.267000 0.000000
v 0.991000 0.174000 0.000000
v 0.296000 0.353000 0.000000
v 0.142000 0.682000 0.000000
v 0.023000 0.682000 0.000000
v 0.356000 0.422000 0.000000
v 0.687000 0.682000 0.000000
v 0.569000 0.682000 0.000000
v 0.415000 0.353000 0.000000
v 0.002000 0.000000 0.000000
v 0.356000 0.282000 0.000000
v 0.706000 0.000000 0.000000
v 0.121000 0.000000 0.000000
v 0.588000 0.000000 0.000000
vn 0.0000 0.0000 1.0000
usemtl MaterialX
s 1
f 1//1 2//1 3//1
f 1//1 4//1 2//1
f 5//1 6//1 7//1
f 5//1 8//1 6//1
f 8//1 9//1 10//1
f 8//1 11//1 9//1
f 5//1 11//1 8//1
f 12//1 11//1 5//1
f 12//1 13//1 11//1
f 13//1 14//1 11//1
f 12//1 15//1 13//1
f 16//1 14//1 13//1
