# Blender v2.76 (sub 0) OBJ File: 'axis_helpers.blend'
# www.blender.org
mtllib x_plus.mtl
o XPlus
v 0.959000 -0.000000 0.589000
v 0.959000 -0.000000 0.394000
v 0.764000 -0.000000 0.394000
v 0.764000 -0.000000 0.312000
v 0.959000 -0.000000 0.312000
v 0.959000 -0.000000 0.117000
v 1.041000 -0.000000 0.117000
v 1.041000 -0.000000 0.312000
v 1.236000 -0.000000 0.312000
v 1.236000 -0.000000 0.394000
v 1.041000 -0.000000 0.394000
v 1.041000 -0.000000 0.589000
v 0.687000 -0.000000 0.682000
v 0.569000 -0.000000 0.682000
v 0.356000 -0.000000 0.422000
v 0.142000 -0.000000 0.682000
v 0.023000 -0.000000 0.682000
v 0.296000 -0.000000 0.353000
v 0.002000 0.000000 0.000000
v 0.121000 0.000000 0.000000
v 0.356000 -0.000000 0.282000
v 0.588000 0.000000 0.000000
v 0.706000 0.000000 0.000000
v 0.415000 -0.000000 0.353000
vn 0.000000 -1.000000 -0.000000
vn 0.000000 0.000000 1.000000
usemtl MaterialX
s off
f 2//1 12//1 1//1
f 2//1 11//1 12//1
f 4//1 2//1 3//1
f 4//1 11//1 2//1
f 4//1 10//1 11//1
f 4//1 9//1 10//1
f 5//2 9//2 4//2
f 6//1 8//1 5//1
f 8//2 9//2 5//2
f 6//1 7//1 8//1
f 18//1 16//1 17//1
f 18//1 15//1 16//1
f 15//1 13//1 14//1
f 15//1 24//1 13//1
f 18//1 24//1 15//1
f 19//1 24//1 18//1
f 19//1 21//1 24//1
f 21//1 23//1 24//1
f 19//1 20//1 21//1
f 22//1 23//1 21//1
