# Blender v2.78 (sub 0) OBJ File: ''
# www.blender.org
mtllib y_plus.mtl
o YPlus
v 0.855000 0.394000 0.000000
v 0.937000 0.589000 0.000000
v 0.855000 0.589000 0.000000
v 0.937000 0.394000 0.000000
v 0.660000 0.312000 0.000000
v 0.660000 0.394000 0.000000
v 1.132000 0.394000 0.000000
v 1.132000 0.312000 0.000000
v 0.855000 0.312000 0.000000
v 0.855000 0.117000 0.000000
v 0.937000 0.312000 0.000000
v 0.937000 0.117000 0.000000
v 0.253000 0.361000 0.000000
v 0.118000 0.682000 0.000000
v 0.000000 0.682000 0.000000
v 0.301000 0.447000 0.000000
v 0.604000 0.682000 0.000000
v 0.486000 0.682000 0.000000
v 0.351000 0.360000 0.000000
v 0.253000 0.000000 0.000000
v 0.351000 0.000000 0.000000
vn 0.0000 0.0000 1.0000
usemtl MaterialYPlus
s 1
f 1//1 2//1 3//1
f 1//1 4//1 2//1
f 5//1 1//1 6//1
f 5//1 4//1 1//1
f 5//1 7//1 4//1
f 5//1 8//1 7//1
f 9//1 8//1 5//1
f 10//1 11//1 9//1
f 11//1 8//1 9//1
f 10//1 12//1 11//1
f 13//1 14//1 15//1
f 13//1 16//1 14//1
f 16//1 17//1 18//1
f 16//1 19//1 17//1
f 13//1 19//1 16//1
f 20//1 19//1 13//1
f 20//1 21//1 19//1
