# Blender v2.78 (sub 0) OBJ File: ''
# www.blender.org
mtllib z_minus.mtl
o Text
v 0.686000 0.174000 0.000000
v 0.929000 0.267000 0.000000
v 0.686000 0.267000 0.000000
v 0.929000 0.174000 0.000000
v 0.043000 0.594000 0.000000
v 0.631000 0.682000 0.000000
v 0.043000 0.682000 0.000000
v 0.450000 0.594000 0.000000
v 0.197000 0.088000 0.000000
v 0.016000 0.000000 0.000000
v 0.631000 0.088000 0.000000
v 0.631000 0.000000 0.000000
vn 0.0000 0.0000 1.0000
usemtl MaterialZ
s 1
f 1//1 2//1 3//1
f 1//1 4//1 2//1
f 5//1 6//1 7//1
f 5//1 8//1 6//1
f 8//1 9//1 6//1
f 10//1 9//1 8//1
f 10//1 11//1 9//1
f 10//1 12//1 11//1
