# Blender v2.76 (sub 0) OBJ File: 'axis_helpers.blend'
# www.blender.org
mtllib z_minus.mtl
o Text
v 0.929000 -0.000000 0.267000
v 0.686000 -0.000000 0.267000
v 0.686000 -0.000000 0.174000
v 0.929000 -0.000000 0.174000
v 0.450000 -0.000000 0.594000
v 0.016000 0.000000 0.000000
v 0.631000 0.000000 0.000000
v 0.631000 -0.000000 0.088000
v 0.197000 -0.000000 0.088000
v 0.631000 -0.000000 0.682000
v 0.043000 -0.000000 0.682000
v 0.043000 -0.000000 0.594000
vn 0.000000 -1.000000 -0.000000
usemtl MaterialZ
s off
f 3//1 1//1 2//1
f 3//1 4//1 1//1
f 12//1 10//1 11//1
f 12//1 5//1 10//1
f 5//1 9//1 10//1
f 6//1 9//1 5//1
f 6//1 8//1 9//1
f 6//1 7//1 8//1
