# Blender v2.76 (sub 0) OBJ File: 'camera.blend'
# www.blender.org
mtllib camera.mtl
o Camera
v -1.000000 -0.200000 0.200000
v -1.000000 -0.200000 -0.200000
v 0.417244 -1.000000 1.000000
v 0.417244 -1.000000 -1.000000
v -1.000000 0.200000 0.200000
v -1.000000 0.200000 -0.200000
v 0.417244 1.000000 1.000000
v 0.417240 1.000000 -1.000000
vn -0.491600 -0.870800 0.000000
vn 1.000000 0.000000 -0.000000
vn -0.491600 0.870800 0.000000
vn -1.000000 0.000000 0.000000
vn -0.491600 0.000000 0.870800
vn -0.491600 -0.000000 -0.870800
usemtl MaterialCamera
s off
f 2//1 4//1 3//1
f 8//2 7//2 3//2
f 8//3 6//3 5//3
f 2//4 1//4 5//4
f 3//5 7//5 5//5
f 8//6 4//6 2//6
f 1//1 2//1 3//1
f 4//2 8//2 3//2
f 7//3 8//3 5//3
f 6//4 2//4 5//4
f 1//5 3//5 5//5
f 6//6 8//6 2//6
