# Blender v2.78 (sub 0) OBJ File: ''
# www.blender.org
mtllib camera.mtl
o Camera.001_Camera
v -1.000000 -0.200000 0.200000
v 0.417244 -1.000000 1.000000
v 0.417244 1.000000 1.000000
v 0.417240 -1.000000 -1.000000
v 0.417244 1.000000 -1.000000
v -1.000000 -0.200000 -0.200000
v -1.000000 0.200000 -0.200000
v -1.000000 0.200000 0.200000
vn -0.4916 0.0000 0.8708
vn 1.0000 -0.0000 -0.0000
vn -0.4916 0.0000 -0.8708
vn -1.0000 0.0000 0.0000
vn -0.4916 0.8708 0.0000
vn -0.4916 -0.8708 0.0000
usemtl MaterialCamera
s 1
f 1//1 2//1 3//1
f 4//2 5//2 3//2
f 4//3 6//3 7//3
f 1//4 8//4 7//4
f 3//5 5//5 7//5
f 4//6 2//6 1//6
f 8//1 1//1 3//1
f 2//2 4//2 3//2
f 5//3 4//3 7//3
f 6//4 1//4 7//4
f 8//5 3//5 7//5
f 6//6 4//6 1//6
