# Blender v2.76 (sub 0) OBJ File: 'light_directional.blend'
# www.blender.org
mtllib light_directional.mtl
o Cylinder
v 0.000000 -0.229568 -0.150000
v 0.000000 0.370432 -0.150000
v 0.029264 -0.229568 -0.147118
v 0.029264 0.370432 -0.147118
v 0.057403 -0.229568 -0.138582
v 0.057403 0.370432 -0.138582
v 0.083336 -0.229568 -0.124720
v 0.083336 0.370432 -0.124720
v 0.106066 -0.229568 -0.106066
v 0.106066 0.370432 -0.106066
v 0.124720 -0.229568 -0.083336
v 0.124720 0.370432 -0.083336
v 0.138582 -0.229568 -0.057403
v 0.138582 0.370432 -0.057403
v 0.147118 -0.229568 -0.029264
v 0.147118 0.370432 -0.029264
v 0.150000 -0.229568 -0.000000
v 0.150000 0.370432 -0.000000
v 0.147118 -0.229568 0.029264
v 0.147118 0.370432 0.029264
v 0.138582 -0.229568 0.057402
v 0.138582 0.370432 0.057402
v 0.124720 -0.229568 0.083336
v 0.124720 0.370432 0.083336
v 0.106066 -0.229568 0.106066
v 0.106066 0.370432 0.106066
v 0.083336 -0.229568 0.124720
v 0.083336 0.370432 0.124720
v 0.057402 -0.229568 0.138582
v 0.057402 0.370432 0.138582
v 0.029264 -0.229568 0.147118
v 0.029264 0.370432 0.147118
v -0.000000 -0.229568 0.150000
v -0.000000 0.370432 0.150000
v -0.029264 -0.229568 0.147118
v -0.029264 0.370432 0.147118
v -0.057403 -0.229568 0.138582
v -0.057403 0.370432 0.138582
v -0.083336 -0.229568 0.124720
v -0.083336 0.370432 0.124720
v -0.106066 -0.229568 0.106066
v -0.106066 0.370432 0.106066
v -0.124721 -0.229568 0.083335
v -0.124721 0.370432 0.083335
v -0.138582 -0.229568 0.057402
v -0.138582 0.370432 0.057402
v -0.147118 -0.229568 0.029263
v -0.147118 0.370432 0.029263
v -0.150000 -0.229568 -0.000000
v -0.150000 0.370432 -0.000000
v -0.147118 -0.229568 -0.029264
v -0.147118 0.370432 -0.029264
v -0.138582 -0.229568 -0.057403
v -0.138582 0.370432 -0.057403
v -0.124720 -0.229568 -0.083336
v -0.124720 0.370432 -0.083336
v -0.106066 -0.229568 -0.106066
v -0.106066 0.370432 -0.106066
v -0.083335 -0.229568 -0.124721
v -0.083335 0.370432 -0.124721
v -0.057402 -0.229568 -0.138582
v -0.057402 0.370432 -0.138582
v -0.029263 -0.229568 -0.147118
v -0.029263 0.370432 -0.147118
v 0.000000 -0.229568 -0.150000
v 0.000000 0.370432 -0.150000
v 0.029264 -0.229568 -0.147118
v 0.029264 0.370432 -0.147118
v 0.057403 -0.229568 -0.138582
v 0.057403 0.370432 -0.138582
v 0.083336 -0.229568 -0.124720
v 0.083336 0.370432 -0.124720
v 0.106066 -0.229568 -0.106066
v 0.106066 0.370432 -0.106066
v 0.124720 -0.229568 -0.083336
v 0.124720 0.370432 -0.083336
v 0.138582 -0.229568 -0.057403
v 0.138582 0.370432 -0.057403
v 0.147118 -0.229568 -0.029264
v 0.147118 0.370432 -0.029264
v 0.150000 -0.229568 -0.000000
v 0.150000 0.370432 -0.000000
v 0.147118 -0.229568 0.029264
v 0.147118 0.370432 0.029264
v 0.138582 -0.229568 0.057402
v 0.138582 0.370432 0.057402
v 0.124720 -0.229568 0.083336
v 0.124720 0.370432 0.083336
v 0.106066 -0.229568 0.106066
v 0.106066 0.370432 0.106066
v 0.083336 -0.229568 0.124720
v 0.083336 0.370432 0.124720
v 0.057402 -0.229568 0.138582
v 0.057402 0.370432 0.138582
v 0.029264 -0.229568 0.147118
v 0.029264 0.370432 0.147118
v -0.000000 -0.229568 0.150000
v -0.000000 0.370432 0.150000
v -0.029264 -0.229568 0.147118
v -0.029264 0.370432 0.147118
v -0.057403 -0.229568 0.138582
v -0.057403 0.370432 0.138582
v -0.083336 -0.229568 0.124720
v -0.083336 0.370432 0.124720
v -0.106066 -0.229568 0.106066
v -0.106066 0.370432 0.106066
v -0.124721 -0.229568 0.083335
v -0.124721 0.370432 0.083335
v -0.138582 -0.229568 0.057402
v -0.138582 0.370432 0.057402
v -0.147118 -0.229568 0.029263
v -0.147118 0.370432 0.029263
v -0.150000 -0.229568 -0.000000
v -0.150000 0.370432 -0.000000
v -0.147118 -0.229568 -0.029264
v -0.147118 0.370432 -0.029264
v -0.138582 -0.229568 -0.057403
v -0.138582 0.370432 -0.057403
v -0.124720 -0.229568 -0.083336
v -0.124720 0.370432 -0.083336
v -0.106066 -0.229568 -0.106066
v -0.106066 0.370432 -0.106066
v -0.083335 -0.229568 -0.124721
v -0.083335 0.370432 -0.124721
v -0.057402 -0.229568 -0.138582
v -0.057402 0.370432 -0.138582
v -0.029263 -0.229568 -0.147118
v -0.029263 0.370432 -0.147118
v 0.029264 0.370432 -0.147118
v 0.000000 0.370432 -0.150000
v 0.057403 0.370432 -0.138582
v 0.083336 0.370432 -0.124720
v 0.106066 0.370432 -0.106066
v 0.124720 0.370432 -0.083336
v 0.138582 0.370432 -0.057403
v 0.147118 0.370432 -0.029264
v 0.150000 0.370432 -0.000000
v 0.147118 0.370432 0.029264
v 0.138582 0.370432 0.057402
v 0.124720 0.370432 0.083336
v 0.106066 0.370432 0.106066
v 0.083336 0.370432 0.124720
v 0.057402 0.370432 0.138582
v 0.029264 0.370432 0.147118
v -0.000000 0.370432 0.150000
v -0.029264 0.370432 0.147118
v -0.057403 0.370432 0.138582
v -0.083336 0.370432 0.124720
v -0.106066 0.370432 0.106066
v -0.124721 0.370432 0.083335
v -0.138582 0.370432 0.057402
v -0.147118 0.370432 0.029263
v -0.150000 0.370432 -0.000000
v -0.147118 0.370432 -0.029264
v -0.138582 0.370432 -0.057403
v -0.124720 0.370432 -0.083336
v -0.106066 0.370432 -0.106066
v -0.083335 0.370432 -0.124721
v -0.057402 0.370432 -0.138582
v -0.029263 0.370432 -0.147118
v 0.029264 0.370432 -0.147118
v 0.000000 0.370432 -0.150000
v 0.057403 0.370432 -0.138582
v 0.083336 0.370432 -0.124720
v 0.106066 0.370432 -0.106066
v 0.124720 0.370432 -0.083336
v 0.138582 0.370432 -0.057403
v 0.147118 0.370432 -0.029264
v 0.150000 0.370432 -0.000000
v 0.147118 0.370432 0.029264
v 0.138582 0.370432 0.057402
v 0.124720 0.370432 0.083336
v 0.106066 0.370432 0.106066
v 0.083336 0.370432 0.124720
v 0.057402 0.370432 0.138582
v 0.029264 0.370432 0.147118
v -0.000000 0.370432 0.150000
v -0.029264 0.370432 0.147118
v -0.057403 0.370432 0.138582
v -0.083336 0.370432 0.124720
v -0.106066 0.370432 0.106066
v -0.124721 0.370432 0.083335
v -0.138582 0.370432 0.057402
v -0.147118 0.370432 0.029263
v -0.150000 0.370432 -0.000000
v -0.147118 0.370432 -0.029264
v -0.138582 0.370432 -0.057403
v -0.124720 0.370432 -0.083336
v -0.106066 0.370432 -0.106066
v -0.083335 0.370432 -0.124721
v -0.057402 0.370432 -0.138582
v -0.029263 0.370432 -0.147118
vn -0.098000 0.000000 0.995200
vn -0.290300 0.000000 0.956900
vn -0.471400 0.000000 0.881900
vn -0.634400 0.000000 0.773000
vn -0.773000 0.000000 0.634400
vn -0.881900 0.000000 0.471400
vn -0.956900 0.000000 0.290300
vn -0.995200 0.000000 0.098000
vn -0.995200 0.000000 -0.098000
vn -0.956900 0.000000 -0.290300
vn -0.881900 0.000000 -0.471400
vn -0.773000 0.000000 -0.634400
vn -0.634400 0.000000 -0.773000
vn -0.471400 0.000000 -0.881900
vn -0.290300 0.000000 -0.956900
vn -0.098000 0.000000 -0.995200
vn 0.098000 0.000000 -0.995200
vn 0.290300 0.000000 -0.956900
vn 0.471400 0.000000 -0.881900
vn 0.634400 0.000000 -0.773000
vn 0.773000 0.000000 -0.634400
vn 0.881900 0.000000 -0.471400
vn 0.956900 0.000000 -0.290300
vn 0.995200 0.000000 -0.098000
vn 0.995200 0.000000 0.098000
vn 0.956900 0.000000 0.290300
vn 0.881900 0.000000 0.471400
vn 0.773000 0.000000 0.634400
vn 0.634400 0.000000 0.773000
vn 0.471400 0.000000 0.881900
vn 0.000000 -1.000000 -0.000000
vn 0.098000 0.000000 0.995200
vn 0.290300 0.000000 0.956900
vn 0.000000 1.000000 0.000000
vn 0.000000 0.000000 1.000000
usemtl None
s off
f 3//1 4//1 2//1
f 5//2 6//2 4//2
f 7//3 8//3 6//3
f 9//4 10//4 8//4
f 11//5 12//5 10//5
f 13//6 14//6 12//6
f 15//7 16//7 14//7
f 17//8 18//8 16//8
f 19//9 20//9 18//9
f 21//10 22//10 20//10
f 23//11 24//11 22//11
f 25//12 26//12 24//12
f 27//13 28//13 26//13
f 29//14 30//14 28//14
f 31//15 32//15 30//15
f 33//16 34//16 32//16
f 35//17 36//17 34//17
f 37//18 38//18 36//18
f 39//19 40//19 38//19
f 41//20 42//20 40//20
f 43//21 44//21 42//21
f 45//22 46//22 44//22
f 47//23 48//23 46//23
f 49//24 50//24 48//24
f 51//25 52//25 50//25
f 53//26 54//26 52//26
f 55//27 56//27 54//27
f 57//28 58//28 56//28
f 59//29 60//29 58//29
f 61//30 62//30 60//30
f 34//31 50//31 18//31
f 1//32 2//32 64//32
f 63//33 64//33 62//33
f 35//34 11//34 3//34
f 66//17 68//17 67//17
f 68//18 70//18 69//18
f 70//19 72//19 71//19
f 72//20 74//20 73//20
f 74//21 76//21 75//21
f 76//22 78//22 77//22
f 78//23 80//23 79//23
f 80//24 82//24 81//24
f 82//25 84//25 83//25
f 84//26 86//26 85//26
f 86//27 88//27 87//27
f 88//28 90//28 89//28
f 90//29 92//29 91//29
f 92//30 94//30 93//30
f 94//33 96//33 95//33
f 96//32 98//32 97//32
f 98//1 100//1 99//1
f 100//2 102//2 101//2
f 102//3 104//3 103//3
f 104//4 106//4 105//4
f 106//5 108//5 107//5
f 108//6 110//6 109//6
f 110//7 112//7 111//7
f 112//8 114//8 113//8
f 114//9 116//9 115//9
f 116//10 118//10 117//10
f 118//11 120//11 119//11
f 120//12 122//12 121//12
f 122//13 124//13 123//13
f 124//14 126//14 125//14
f 78//35 76//35 134//35
f 128//16 66//16 65//16
f 126//15 128//15 127//15
f 95//31 111//31 79//31
f 145//35 144//35 176//35
f 96//35 94//35 143//35
f 114//35 112//35 152//35
f 70//35 68//35 129//35
f 88//35 86//35 139//35
f 106//35 104//35 148//35
f 124//35 122//35 157//35
f 80//35 78//35 135//35
f 98//35 96//35 144//35
f 116//35 114//35 153//35
f 72//35 70//35 131//35
f 90//35 88//35 140//35
f 108//35 106//35 149//35
f 126//35 124//35 158//35
f 82//35 80//35 136//35
f 100//35 98//35 145//35
f 118//35 116//35 154//35
f 74//35 72//35 132//35
f 92//35 90//35 141//35
f 110//35 108//35 150//35
f 128//35 126//35 159//35
f 84//35 82//35 137//35
f 102//35 100//35 146//35
f 120//35 118//35 155//35
f 76//35 74//35 133//35
f 94//35 92//35 142//35
f 112//35 110//35 151//35
f 68//35 66//35 130//35
f 66//35 128//35 160//35
f 86//35 84//35 138//35
f 104//35 102//35 147//35
f 122//35 120//35 156//35
f 179//34 171//34 187//34
f 132//35 131//35 163//35
f 159//35 158//35 190//35
f 146//35 145//35 177//35
f 133//35 132//35 164//35
f 160//35 159//35 191//35
f 147//35 146//35 178//35
f 134//35 133//35 165//35
f 130//35 160//35 192//35
f 148//35 147//35 179//35
f 135//35 134//35 166//35
f 149//35 148//35 180//35
f 136//35 135//35 167//35
f 150//35 149//35 181//35
f 137//35 136//35 168//35
f 151//35 150//35 182//35
f 138//35 137//35 169//35
f 152//35 151//35 183//35
f 139//35 138//35 170//35
f 153//35 152//35 184//35
f 140//35 139//35 171//35
f 154//35 153//35 185//35
f 141//35 140//35 172//35
f 155//35 154//35 186//35
f 142//35 141//35 173//35
f 156//35 155//35 187//35
f 143//35 142//35 174//35
f 129//35 130//35 162//35
f 157//35 156//35 188//35
f 144//35 143//35 175//35
f 131//35 129//35 161//35
f 158//35 157//35 189//35
f 1//1 3//1 2//1
f 3//2 5//2 4//2
f 5//3 7//3 6//3
f 7//4 9//4 8//4
f 9//5 11//5 10//5
f 11//6 13//6 12//6
f 13//7 15//7 14//7
f 15//8 17//8 16//8
f 17//9 19//9 18//9
f 19//10 21//10 20//10
f 21//11 23//11 22//11
f 23//12 25//12 24//12
f 25//13 27//13 26//13
f 27//14 29//14 28//14
f 29//15 31//15 30//15
f 31//16 33//16 32//16
f 33//17 35//17 34//17
f 35//18 37//18 36//18
f 37//19 39//19 38//19
f 39//20 41//20 40//20
f 41//21 43//21 42//21
f 43//22 45//22 44//22
f 45//23 47//23 46//23
f 47//24 49//24 48//24
f 49//25 51//25 50//25
f 51//26 53//26 52//26
f 53//27 55//27 54//27
f 55//28 57//28 56//28
f 57//29 59//29 58//29
f 59//30 61//30 60//30
f 2//31 4//31 6//31
f 6//31 8//31 10//31
f 10//31 12//31 14//31
f 14//31 16//31 18//31
f 18//31 20//31 22//31
f 22//31 24//31 26//31
f 26//31 28//31 30//31
f 30//31 32//31 34//31
f 34//31 36//31 42//31
f 38//31 40//31 42//31
f 42//31 44//31 50//31
f 46//31 48//31 50//31
f 50//31 52//31 58//31
f 54//31 56//31 58//31
f 58//31 60//31 62//31
f 62//31 64//31 58//31
f 2//31 6//31 10//31
f 10//31 14//31 2//31
f 18//31 22//31 26//31
f 26//31 30//31 34//31
f 36//31 38//31 42//31
f 44//31 46//31 50//31
f 52//31 54//31 58//31
f 58//31 64//31 2//31
f 2//31 14//31 18//31
f 18//31 26//31 34//31
f 34//31 42//31 50//31
f 50//31 58//31 2//31
f 2//31 18//31 50//31
f 63//32 1//32 64//32
f 61//33 63//33 62//33
f 3//34 1//34 63//34
f 63//34 61//34 59//34
f 59//34 57//34 51//34
f 55//34 53//34 51//34
f 51//34 49//34 47//34
f 47//34 45//34 43//34
f 43//34 41//34 39//34
f 39//34 37//34 43//34
f 35//34 33//34 31//34
f 31//34 29//34 35//34
f 27//34 25//34 19//34
f 23//34 21//34 19//34
f 19//34 17//34 15//34
f 15//34 13//34 19//34
f 11//34 9//34 3//34
f 7//34 5//34 3//34
f 3//34 63//34 51//34
f 57//34 55//34 51//34
f 51//34 47//34 35//34
f 43//34 37//34 35//34
f 35//34 29//34 27//34
f 25//34 23//34 19//34
f 19//34 13//34 11//34
f 9//34 7//34 3//34
f 63//34 59//34 51//34
f 47//34 43//34 35//34
f 35//34 27//34 19//34
f 19//34 11//34 35//34
f 3//34 51//34 35//34
f 65//17 66//17 67//17
f 67//18 68//18 69//18
f 69//19 70//19 71//19
f 71//20 72//20 73//20
f 73//21 74//21 75//21
f 75//22 76//22 77//22
f 77//23 78//23 79//23
f 79//24 80//24 81//24
f 81//25 82//25 83//25
f 83//26 84//26 85//26
f 85//27 86//27 87//27
f 87//28 88//28 89//28
f 89//29 90//29 91//29
f 91//30 92//30 93//30
f 93//33 94//33 95//33
f 95//32 96//32 97//32
f 97//1 98//1 99//1
f 99//2 100//2 101//2
f 101//3 102//3 103//3
f 103//4 104//4 105//4
f 105//5 106//5 107//5
f 107//6 108//6 109//6
f 109//7 110//7 111//7
f 111//8 112//8 113//8
f 113//9 114//9 115//9
f 115//10 116//10 117//10
f 117//11 118//11 119//11
f 119//12 120//12 121//12
f 121//13 122//13 123//13
f 123//14 124//14 125//14
f 135//35 78//35 134//35
f 127//16 128//16 65//16
f 125//15 126//15 127//15
f 127//31 65//31 67//31
f 67//31 69//31 71//31
f 71//31 73//31 75//31
f 75//31 77//31 71//31
f 79//31 81//31 87//31
f 83//31 85//31 87//31
f 87//31 89//31 91//31
f 91//31 93//31 95//31
f 95//31 97//31 99//31
f 99//31 101//31 103//31
f 103//31 105//31 107//31
f 107//31 109//31 111//31
f 111//31 113//31 115//31
f 115//31 117//31 119//31
f 119//31 121//31 123//31
f 123//31 125//31 127//31
f 127//31 67//31 79//31
f 71//31 77//31 79//31
f 81//31 83//31 87//31
f 87//31 91//31 79//31
f 95//31 99//31 111//31
f 103//31 107//31 111//31
f 111//31 115//31 127//31
f 119//31 123//31 127//31
f 67//31 71//31 79//31
f 79//31 91//31 95//31
f 99//31 103//31 111//31
f 115//31 119//31 127//31
f 127//31 79//31 111//31
f 177//35 145//35 176//35
f 144//35 96//35 143//35
f 153//35 114//35 152//35
f 131//35 70//35 129//35
f 140//35 88//35 139//35
f 149//35 106//35 148//35
f 158//35 124//35 157//35
f 136//35 80//35 135//35
f 145//35 98//35 144//35
f 154//35 116//35 153//35
f 132//35 72//35 131//35
f 141//35 90//35 140//35
f 150//35 108//35 149//35
f 159//35 126//35 158//35
f 137//35 82//35 136//35
f 146//35 100//35 145//35
f 155//35 118//35 154//35
f 133//35 74//35 132//35
f 142//35 92//35 141//35
f 151//35 110//35 150//35
f 160//35 128//35 159//35
f 138//35 84//35 137//35
f 147//35 102//35 146//35
f 156//35 120//35 155//35
f 134//35 76//35 133//35
f 143//35 94//35 142//35
f 152//35 112//35 151//35
f 129//35 68//35 130//35
f 130//35 66//35 160//35
f 139//35 86//35 138//35
f 148//35 104//35 147//35
f 157//35 122//35 156//35
f 163//34 161//34 162//34
f 162//34 192//34 163//34
f 191//34 190//34 189//34
f 189//34 188//34 187//34
f 187//34 186//34 185//34
f 185//34 184//34 183//34
f 183//34 182//34 179//34
f 181//34 180//34 179//34
f 179//34 178//34 175//34
f 177//34 176//34 175//34
f 175//34 174//34 173//34
f 173//34 172//34 171//34
f 171//34 170//34 169//34
f 169//34 168//34 167//34
f 167//34 166//34 165//34
f 165//34 164//34 163//34
f 163//34 192//34 191//34
f 191//34 189//34 187//34
f 187//34 185//34 179//34
f 182//34 181//34 179//34
f 178//34 177//34 175//34
f 175//34 173//34 179//34
f 171//34 169//34 167//34
f 167//34 165//34 171//34
f 163//34 191//34 187//34
f 185//34 183//34 179//34
f 179//34 173//34 171//34
f 171//34 165//34 163//34
f 163//34 187//34 171//34
f 164//35 132//35 163//35
f 191//35 159//35 190//35
f 178//35 146//35 177//35
f 165//35 133//35 164//35
f 192//35 160//35 191//35
f 179//35 147//35 178//35
f 166//35 134//35 165//35
f 162//35 130//35 192//35
f 180//35 148//35 179//35
f 167//35 135//35 166//35
f 181//35 149//35 180//35
f 168//35 136//35 167//35
f 182//35 150//35 181//35
f 169//35 137//35 168//35
f 183//35 151//35 182//35
f 170//35 138//35 169//35
f 184//35 152//35 183//35
f 171//35 139//35 170//35
f 185//35 153//35 184//35
f 172//35 140//35 171//35
f 186//35 154//35 185//35
f 173//35 141//35 172//35
f 187//35 155//35 186//35
f 174//35 142//35 173//35
f 188//35 156//35 187//35
f 175//35 143//35 174//35
f 161//35 129//35 162//35
f 189//35 157//35 188//35
f 176//35 144//35 175//35
f 163//35 131//35 161//35
f 190//35 158//35 189//35
