# Blender v2.76 (sub 0) OBJ File: 'light.blend'
# www.blender.org
mtllib light.mtl
o Light_Cone
v 0.000000 0.200000 -0.200000
v 0.039018 0.196157 -0.200000
v 0.076537 0.184776 -0.200000
v 0.111114 0.166294 -0.200000
v 0.141421 0.141421 -0.200000
v 0.166294 0.111114 -0.200000
v 0.184776 0.076537 -0.200000
v 0.196157 0.039018 -0.200000
v 0.200000 0.000000 -0.200000
v 0.000000 -0.000000 0.200000
v 0.196157 -0.039018 -0.200000
v 0.184776 -0.076537 -0.200000
v 0.166294 -0.111114 -0.200000
v 0.141421 -0.141421 -0.200000
v 0.111114 -0.166294 -0.200000
v 0.076537 -0.184776 -0.200000
v 0.039018 -0.196157 -0.200000
v -0.000000 -0.200000 -0.200000
v -0.039018 -0.196157 -0.200000
v -0.076537 -0.184776 -0.200000
v -0.111114 -0.166294 -0.200000
v -0.141421 -0.141421 -0.200000
v -0.166294 -0.111114 -0.200000
v -0.184776 -0.076537 -0.200000
v -0.196157 -0.039018 -0.200000
v -0.200000 0.000000 -0.200000
v -0.196157 0.039018 -0.200000
v -0.184776 0.076537 -0.200000
v -0.166294 0.111114 -0.200000
v -0.141421 0.141422 -0.200000
v -0.111114 0.166294 -0.200000
v -0.076536 0.184776 -0.200000
v -0.039018 0.196157 -0.200000
vt 0.727600 0.003273
vt 0.450557 0.999512
vt 0.696479 -0.001053
vt 0.665086 -0.005319
vt 0.633417 -0.009363
vt 0.758464 0.007491
vt 0.789094 0.011441
vt 0.819521 0.014969
vt 0.849777 0.017941
vt 0.879900 0.020243
vt 0.909928 0.021785
vt 0.939901 0.022509
vt 0.969860 0.022386
vt 1.450557 0.999512
vt 0.999845 0.021422
vt 1.029896 0.019653
vt 0.060053 0.017148
vt 0.029896 0.019653
vt 0.090355 0.014003
vt 0.120837 0.010338
vt 0.151532 0.006295
vt 0.182469 0.002028
vt 0.213667 -0.002298
vt 0.245139 -0.006516
vt 0.276888 -0.010466
vt 0.308901 -0.013994
vt 0.341154 -0.016966
vt 0.373610 -0.019268
vt 0.406218 -0.020810
vt 0.438917 -0.021534
vt 0.471640 -0.021411
vt 0.504319 -0.020447
vt 0.536889 -0.018678
vt 0.569291 -0.016173
vt 0.601478 -0.013028
vt 1.182469 0.002028
vt 1.438917 -0.021534
vt 1.471640 -0.021411
vt 1.406218 -0.020810
vt 1.373610 -0.019268
vt 1.341154 -0.016966
vt 1.308901 -0.013994
vt 1.276888 -0.010466
vt 1.245139 -0.006516
vt 1.213667 -0.002298
vt 1.151532 0.006295
vt 1.120837 0.010338
vt 1.090355 0.014003
vt 1.060053 0.017148
vn -0.259900 0.856700 0.445500
vn 0.087800 0.891000 0.445500
vn -0.422000 0.789600 0.445500
vn -0.568000 0.692100 0.445500
vn -0.692100 0.568000 0.445500
vn -0.789600 0.422000 0.445500
vn -0.856700 0.259900 0.445500
vn -0.891000 0.087800 0.445500
vn -0.891000 -0.087800 0.445500
vn -0.856700 -0.259900 0.445500
vn -0.789600 -0.422000 0.445500
vn -0.692100 -0.568000 0.445500
vn -0.568000 -0.692100 0.445500
vn -0.422000 -0.789600 0.445500
vn -0.259900 -0.856700 0.445500
vn -0.087800 -0.891000 0.445500
vn 0.087800 -0.891000 0.445500
vn 0.259900 -0.856700 0.445500
vn 0.422000 -0.789600 0.445500
vn 0.568000 -0.692100 0.445500
vn 0.692100 -0.568000 0.445500
vn 0.789600 -0.422000 0.445500
vn 0.856700 -0.259900 0.445500
vn 0.891000 -0.087800 0.445500
vn 0.891000 0.087800 0.445500
vn 0.856700 0.259900 0.445500
vn 0.789600 0.422000 0.445500
vn 0.692100 0.568000 0.445500
vn 0.568000 0.692100 0.445500
vn 0.422000 0.789600 0.445500
vn -0.087800 0.891000 0.445500
vn 0.259900 0.856700 0.445500
vn 0.000000 0.000000 -1.000000
usemtl MaterialCone
s off
f 32/1/1 10/2/1 33/3/1
f 1/4/2 10/2/2 2/5/2
f 31/6/3 10/2/3 32/1/3
f 30/7/4 10/2/4 31/6/4
f 29/8/5 10/2/5 30/7/5
f 28/9/6 10/2/6 29/8/6
f 27/10/7 10/2/7 28/9/7
f 26/11/8 10/2/8 27/10/8
f 25/12/9 10/2/9 26/11/9
f 24/13/10 10/14/10 25/12/10
f 23/15/11 10/14/11 24/13/11
f 22/16/12 10/14/12 23/15/12
f 21/17/13 10/2/13 22/18/13
f 20/19/14 10/2/14 21/17/14
f 19/20/15 10/2/15 20/19/15
f 18/21/16 10/2/16 19/20/16
f 17/22/17 10/2/17 18/21/17
f 16/23/18 10/2/18 17/22/18
f 15/24/19 10/2/19 16/23/19
f 14/25/20 10/2/20 15/24/20
f 13/26/21 10/2/21 14/25/21
f 12/27/22 10/2/22 13/26/22
f 11/28/23 10/2/23 12/27/23
f 9/29/24 10/2/24 11/28/24
f 8/30/25 10/2/25 9/29/25
f 7/31/26 10/2/26 8/30/26
f 6/32/27 10/2/27 7/31/27
f 5/33/28 10/2/28 6/32/28
f 4/34/29 10/2/29 5/33/29
f 3/35/30 10/2/30 4/34/30
f 33/3/31 10/2/31 1/4/31
f 2/5/32 10/2/32 3/35/32
f 17/36/33 25/12/33 8/37/33
f 33/3/33 1/4/33 2/5/33
f 2/5/33 3/35/33 4/34/33
f 4/34/33 5/33/33 6/32/33
f 6/32/33 7/38/33 4/34/33
f 8/37/33 9/39/33 11/40/33
f 11/40/33 12/41/33 8/37/33
f 13/42/33 14/43/33 15/44/33
f 15/44/33 16/45/33 17/36/33
f 17/36/33 18/46/33 19/47/33
f 19/47/33 20/48/33 21/49/33
f 21/49/33 22/16/33 23/15/33
f 23/15/33 24/13/33 25/12/33
f 25/12/33 26/11/33 27/10/33
f 27/10/33 28/9/33 25/12/33
f 29/8/33 30/7/33 31/6/33
f 31/6/33 32/1/33 33/3/33
f 33/3/33 2/5/33 4/34/33
f 4/34/33 7/38/33 8/37/33
f 8/37/33 12/41/33 13/42/33
f 13/42/33 15/44/33 8/37/33
f 17/36/33 19/47/33 21/49/33
f 21/49/33 23/15/33 25/12/33
f 25/12/33 28/9/33 29/8/33
f 29/8/33 31/6/33 33/3/33
f 33/3/33 4/34/33 8/37/33
f 8/37/33 15/44/33 17/36/33
f 17/36/33 21/49/33 25/12/33
f 25/12/33 29/8/33 33/3/33
f 33/3/33 8/37/33 25/12/33
