# Blender v2.76 (sub 0) OBJ File: 'light_hemi.blend'
# www.blender.org
mtllib light_hemi.mtl
o Cone
v -0.300000 0.000000 0.000000
v -0.294236 0.058527 0.000000
v -0.277164 0.114805 0.000000
v -0.249441 0.166671 0.000000
v -0.212132 0.212132 0.000000
v -0.166671 0.249441 0.000000
v -0.114805 0.277164 0.000000
v -0.058527 0.294236 0.000000
v -0.000000 0.300000 0.000000
v 0.000000 0.000000 0.600000
v 0.058527 0.294236 0.000000
v 0.114805 0.277164 0.000000
v 0.166671 0.249441 0.000000
v 0.212132 0.212132 0.000000
v 0.249441 0.166671 0.000000
v 0.277164 0.114805 0.000000
v 0.294236 0.058527 0.000000
v 0.300000 -0.000000 0.000000
v 0.294236 -0.058527 0.000000
v 0.277164 -0.114805 0.000000
v 0.249441 -0.166671 0.000000
v 0.212132 -0.212132 0.000000
v 0.166671 -0.249441 0.000000
v 0.114805 -0.277164 0.000000
v 0.058527 -0.294236 0.000000
v -0.000000 -0.300000 0.000000
v -0.058527 -0.294236 0.000000
v -0.114805 -0.277164 0.000000
v -0.166671 -0.249441 0.000000
v -0.212132 -0.212132 0.000000
v -0.249441 -0.166671 0.000000
v -0.277164 -0.114805 0.000000
v -0.294236 -0.058527 0.000000
v 0.600000 -0.600000 0.000000
v 0.600000 0.600000 0.000000
v -0.600000 -0.600000 0.000000
v -0.600000 0.600000 0.000000
vn -0.856700 -0.259900 0.445500
vn -0.891000 0.087800 0.445500
vn -0.789600 -0.422000 0.445500
vn -0.692100 -0.568000 0.445500
vn -0.568000 -0.692100 0.445500
vn -0.422000 -0.789600 0.445500
vn -0.259900 -0.856700 0.445500
vn -0.087800 -0.891000 0.445500
vn 0.087800 -0.891000 0.445500
vn 0.259900 -0.856700 0.445500
vn 0.422000 -0.789600 0.445500
vn 0.568000 -0.692100 0.445500
vn 0.692100 -0.568000 0.445500
vn 0.789600 -0.422000 0.445500
vn 0.856700 -0.259900 0.445500
vn 0.891000 -0.087800 0.445500
vn 0.891000 0.087800 0.445500
vn 0.856700 0.259900 0.445500
vn 0.789600 0.422000 0.445500
vn 0.692100 0.568000 0.445500
vn 0.568000 0.692100 0.445500
vn 0.422000 0.789600 0.445500
vn 0.259900 0.856700 0.445500
vn 0.087800 0.891000 0.445500
vn -0.087800 0.891000 0.445500
vn -0.259900 0.856700 0.445500
vn -0.422000 0.789600 0.445500
vn -0.568000 0.692100 0.445500
vn -0.692100 0.568000 0.445500
vn -0.789600 0.422000 0.445500
vn -0.891000 -0.087800 0.445500
vn -0.856700 0.259900 0.445500
vn 0.000000 0.000000 -1.000000
vn 0.000000 0.000000 1.000000
usemtl (null)
s off
f 32//1 10//1 33//1
f 1//2 10//2 2//2
f 31//3 10//3 32//3
f 30//4 10//4 31//4
f 29//5 10//5 30//5
f 28//6 10//6 29//6
f 27//7 10//7 28//7
f 26//8 10//8 27//8
f 25//9 10//9 26//9
f 24//10 10//10 25//10
f 23//11 10//11 24//11
f 22//12 10//12 23//12
f 21//13 10//13 22//13
f 20//14 10//14 21//14
f 19//15 10//15 20//15
f 18//16 10//16 19//16
f 17//17 10//17 18//17
f 16//18 10//18 17//18
f 15//19 10//19 16//19
f 14//20 10//20 15//20
f 13//21 10//21 14//21
f 12//22 10//22 13//22
f 11//23 10//23 12//23
f 9//24 10//24 11//24
f 8//25 10//25 9//25
f 7//26 10//26 8//26
f 6//27 10//27 7//27
f 5//28 10//28 6//28
f 4//29 10//29 5//29
f 3//30 10//30 4//30
f 33//31 10//31 1//31
f 2//32 10//32 3//32
f 17//33 25//33 8//33
f 35//34 37//34 36//34
f 33//33 1//33 2//33
f 2//33 3//33 4//33
f 4//33 5//33 8//33
f 6//33 7//33 8//33
f 8//33 9//33 11//33
f 11//33 12//33 8//33
f 13//33 14//33 17//33
f 15//33 16//33 17//33
f 17//33 18//33 19//33
f 19//33 20//33 21//33
f 21//33 22//33 23//33
f 23//33 24//33 25//33
f 25//33 26//33 27//33
f 27//33 28//33 29//33
f 29//33 30//33 33//33
f 31//33 32//33 33//33
f 33//33 2//33 8//33
f 5//33 6//33 8//33
f 8//33 12//33 13//33
f 14//33 15//33 17//33
f 17//33 19//33 25//33
f 21//33 23//33 25//33
f 25//33 27//33 33//33
f 30//33 31//33 33//33
f 2//33 4//33 8//33
f 8//33 13//33 17//33
f 19//33 21//33 25//33
f 27//33 29//33 33//33
f 33//33 8//33 25//33
f 34//34 35//34 36//34
